<?xml version="1.0" encoding="utf-8"?>
<!-- Generator: Adobe Illustrator 24.2.3, SVG Export Plug-In . SVG Version: 6.00 Build 0)  -->
<svg version="1.1" id="Layer_1" xmlns="http://www.w3.org/2000/svg" xmlns:xlink="http://www.w3.org/1999/xlink" x="0px" y="0px"
	 viewBox="0 0 48 48" style="enable-background:new 0 0 48 48;" xml:space="preserve">
<path d="M17.2,19.1c0-1,0-1.9,0-2.8c0-1,0.5-1.5,1.5-1.5c0.7,0,1.5,0,2.2,0c-0.3-3.3,0.7-6.1,3.2-8.3c1.9-1.8,4.2-2.6,6.8-2.5
	c5.3,0.1,10,4.8,9.4,10.8c0.7,0,1.4,0,2.1,0c1,0,1.5,0.5,1.5,1.5c0,7.5,0,15.1,0,22.6c0,1-0.5,1.4-1.5,1.4c-0.9,0-1.9,0-2.8,0
	c-0.3,0-0.4,0.1-0.6,0.4c-0.7,1.8-2.4,3-4.3,3c-1.9,0-3.6-1.2-4.3-3c-0.1-0.3-0.3-0.4-0.6-0.4c-3.8,0-7.5,0-11.3,0
	c-0.5,0-1.1,0-1.6,0c-0.3,0-0.4,0.1-0.5,0.3c-0.8,1.9-2.4,3-4.4,3c-1.9,0-3.6-1.1-4.3-3c-0.1-0.3-0.2-0.3-0.5-0.3
	c-0.5,0-0.9,0-1.4,0c-1,0-1.5-0.5-1.5-1.5c0-2.5,0-5,0-7.5c0-1.1,0-2.2,0-3.3c0-0.4,0.2-0.8,0.4-1.1c1.7-2.4,3.5-4.7,5.2-7.1
	c0.3-0.5,0.8-0.7,1.4-0.7C13.2,19.1,15.2,19.1,17.2,19.1z M19.8,37.7c0.2,0,0.3,0,0.5,0c3.1,0,6.2,0,9.3,0c0.3,0,0.5-0.1,0.6-0.4
	c0.8-2.2,3-3.4,5.3-3c1.7,0.4,2.8,1.4,3.5,3c0.1,0.2,0.2,0.4,0.3,0.4c0.6,0,1.3,0,2,0c0-6.8,0-13.6,0-20.4c-0.4,0-0.8,0-1.2,0
	c-0.4,0-0.6,0.1-0.7,0.4c-2.2,4.7-7.7,6.8-12.4,4.8c-2.3-1-4-2.6-5.1-4.9c-0.1-0.1-0.2-0.3-0.3-0.3c-0.5,0-1.1,0-1.7,0
	C19.8,24.1,19.8,30.9,19.8,37.7z M30.6,20.8c4,0,7.2-3.2,7.1-7.2c0-4-3.2-7.2-7.2-7.1c-4,0-7.2,3.2-7.2,7.2
	C23.5,17.6,26.7,20.8,30.6,20.8z M15.4,21.6c0,0.2,0,0.4,0,0.6c0,2.3,0,4.6,0,6.9c0,1.1-0.5,1.6-1.6,1.6c-2.2,0-4.4,0-6.6,0
	c-0.2,0-0.3,0-0.5,0c0,2.4,0,4.7,0,7c0.5,0.2,0.7,0,0.9-0.5c0.7-1.8,2.4-2.9,4.3-2.9c1.9,0,3.7,1.2,4.4,2.9c0.2,0.6,0.2,0.6,0.9,0.4
	c0-5.3,0-10.7,0-16C16.6,21.6,16,21.6,15.4,21.6z M6.7,28.1c2.1,0,4.1,0,6,0c0-2.2,0-4.3,0-6.5c-0.2,0-0.5,0-0.7,0
	c-0.4-0.1-0.6,0.1-0.9,0.4c-0.5,0.7-1,1.4-1.5,2.1C8.7,25.4,7.8,26.8,6.7,28.1z M9.9,38.9c0,1.2,1,2.1,2.1,2.1c1.2,0,2.1-1,2.1-2.3
	c0-1.1-1-2-2.2-2C10.7,36.9,9.8,37.8,9.9,38.9z M34.6,41c1.2,0,2.1-0.9,2.1-2.1c0-1.2-0.9-2.1-2.1-2.1c-1.2,0-2.1,0.9-2.2,2.1
	C32.5,40.1,33.5,41,34.6,41z"/>
<path d="M34.5,15.6c-0.6,0.6-1.2,1.2-1.8,1.8c-1-1-2-2-3-3c-0.2-0.2-0.3-0.5-0.3-0.8c0-1.5,0-2.9,0-4.4c0,0,0-0.1,0-0.1
	c0.8,0,1.6,0,2.5,0c0,1.2,0,2.4,0,3.5c0,0.4,0.1,0.6,0.4,0.9C33,14.2,33.7,14.9,34.5,15.6z"/>
</svg>
